# xmcd
#
# Track frame offsets:
#	150
#	23358
#	45958
#	79968
#	91123
#	121897
#	145715
#	170494
#	192048
#	213559
#
# Disc length: 3105 seconds
#
# Revision: 0
# Processed by: cddbd v1.5.2PL0 Copyright (c) Steve Scherf et al.
# Submitted via: dBpowerAMP V4.0
#
DISCID=730c1f0a
DTITLE=Octavia and  The Earthblood Blues Band - Down In The Hollow
DYEAR=2005
DGENRE=Blues
TTITLE0=Playin For My Keep
TTITLE1=Down InThe Hollow
TTITLE2=A Cold Day In Hell
TTITLE3=Insomnia
TTITLE4=Service Call
TTITLE5=Indelible Days
TTITLE6=Unchain My Heart
TTITLE7=The Village Will Provide
TTITLE8=Need A Little Sugar In My Bowl
TTITLE9=This Train's a Commin' 
EXTD=Octavia/CD Baby
EXTT0=
EXTT1=
EXTT2=
EXTT3=
EXTT4=
EXTT5=
EXTT6=
EXTT7=
EXTT8=
EXTT9=
PLAYORDER=
